<svg width="148" height="40" viewBox="0 0 148 40" fill="none" xmlns="http://www.w3.org/2000/svg">
<g id="Airlast logo" clip-path="url(#clip0_4635_275)">
<g id="Group">
<path id="Vector" d="M63.0968 13.1747C64.065 16.0773 66.875 24.2086 67.8246 26.8222H64.6531L63.8803 24.3845C63.854 24.3028 63.7779 24.2463 63.6926 24.2463H57.7685C57.6832 24.2463 57.6087 24.3013 57.5823 24.3829L56.791 26.8222H53.7141C54.7009 24.2086 57.5885 16.0773 58.5753 13.1747H63.0968ZM58.8919 21.8243H62.5987C62.8268 21.8243 62.9897 21.5997 62.9199 21.3798L62.6422 20.4987C62.158 18.939 61.6755 17.3464 61.255 16.0255C61.21 15.8841 61.0812 15.7899 60.9338 15.7899H60.5707C60.4233 15.7899 60.2945 15.8841 60.2495 16.0255C59.8275 17.3637 59.3263 18.9595 58.8422 20.538L58.5691 21.3783C58.4978 21.5997 58.6607 21.8259 58.8888 21.8259H58.8919V21.8243Z" fill="#002D31"/>
<path id="Vector_2" d="M70.484 15.6548C70.484 14.6558 70.484 13.9051 70.4653 13.1747H73.446C73.4274 13.9051 73.4274 14.6543 73.4274 15.6548V24.1693C73.4274 25.2657 73.4274 26.0337 73.446 26.8222H70.4653C70.484 26.0526 70.484 25.2657 70.484 24.1693V15.6548Z" fill="#002D31"/>
<path id="Vector_3" d="M77.4538 15.6548C77.4538 14.6558 77.4538 13.8862 77.4352 13.1747H84.8225C88.2981 13.1747 89.721 14.271 89.721 17.5961V17.6731C89.721 19.9411 89.0569 21.2683 87.1189 21.8243C87.4804 22.44 87.8404 23.0934 88.2392 23.7845C88.79 24.7835 89.3982 25.8217 90.0235 26.8222H86.776C86.3959 26.1295 85.9785 25.3803 85.5611 24.6123L84.3493 22.495C84.2887 22.3898 84.177 22.3238 84.056 22.3238H80.658C80.4718 22.3238 80.3197 22.4777 80.3197 22.6662V24.1693C80.3197 25.2657 80.3197 26.0526 80.3383 26.8222H77.4321C77.4507 26.073 77.4507 25.2657 77.4507 24.1693V15.6548H77.4538ZM80.3212 15.9972V19.5218C80.3212 19.7102 80.4733 19.8642 80.6595 19.8642H84.3663C86.1321 19.8642 86.7776 19.2689 86.7776 17.7108V17.6731C86.7776 16.1354 86.1321 15.6548 84.4036 15.6548H80.6595C80.4733 15.6548 80.3212 15.8087 80.3212 15.9972Z" fill="#002D31"/>
<path id="Vector_4" d="M92.9485 26.8222C92.9671 26.0526 92.9671 25.2264 92.9671 24.1316V15.6736C92.9671 14.6543 92.9671 13.9051 92.9485 13.1747H95.8531C95.8345 13.9051 95.8345 14.6354 95.8345 15.6155V23.8693C95.8345 24.0562 95.985 24.2086 96.1697 24.2086H98.7593C100.089 24.2086 101.532 24.2086 103.051 24.1898V26.8237H92.9485V26.8222Z" fill="#002D31"/>
<path id="Vector_5" d="M114.198 13.1747C115.166 16.0773 117.976 24.2086 118.926 26.8222H115.754L115.014 24.485C114.969 24.3421 114.837 24.2463 114.69 24.2463H108.975C108.828 24.2463 108.697 24.3421 108.653 24.4835L107.894 26.8222H104.817C105.804 24.2086 108.691 16.0773 109.678 13.1747H114.198ZM109.996 21.8243H113.694C113.925 21.8243 114.088 21.5966 114.018 21.3751L113.742 20.4987C113.259 18.9406 112.775 17.348 112.356 16.027C112.311 15.8841 112.181 15.7883 112.032 15.7883H111.674C111.526 15.7883 111.394 15.8841 111.349 16.027C110.927 17.3637 110.428 18.9595 109.943 20.5364L109.672 21.372C109.599 21.595 109.763 21.8243 109.995 21.8243H109.996Z" fill="#002D31"/>
<path id="Vector_6" d="M120.768 22.8248V22.5751L123.635 22.4981V22.9395C123.635 24.3421 124.204 24.6311 127.205 24.6311C129.863 24.6311 130.319 24.2463 130.319 23.0934C130.319 22.0175 129.845 21.5558 126.332 21.1332C121.832 20.5757 120.882 19.6914 120.882 16.982C120.882 14.2726 122.155 12.9061 126.693 12.9061C131.783 12.9061 132.732 14.0983 132.732 16.982V17.2317L129.902 17.2898V16.8673C129.902 15.7333 129.275 15.3485 126.712 15.3485C124.301 15.3485 123.806 15.7899 123.806 16.8092C123.806 17.8851 124.204 18.2118 127.585 18.6155C132.2 19.1731 133.187 20.3071 133.187 22.9207C133.187 25.9002 132.066 27.0923 127.242 27.0923C122.001 27.0923 120.768 26.2662 120.768 22.8248Z" fill="#002D31"/>
<path id="Vector_7" d="M140.08 16.1307C140.08 15.9422 139.93 15.7899 139.744 15.7899H138.448C137.689 15.7899 136.682 15.7899 135.049 15.8087V13.1747H148V15.8087C146.633 15.7899 145.607 15.7899 144.847 15.7899H143.285C143.098 15.7899 142.948 15.9422 142.948 16.1307V24.1709C142.948 25.2672 142.948 26.0353 142.967 26.8237H140.062C140.08 26.0541 140.08 25.2672 140.08 24.1709V16.1307Z" fill="#002D31"/>
</g>
<g id="Group_2">
<path id="Vector_8" d="M21.5924 0.216725L40.7798 11.4312C41.2763 11.7218 41.5819 12.2574 41.5819 12.837V27.1645C41.5819 27.7441 41.2763 28.2797 40.7798 28.5703L21.5939 39.7832C21.0974 40.0738 20.4845 40.0738 19.988 39.7832L0.799086 28.5263C0.304118 28.2357 0 27.7017 0 27.1221V12.8385C0 12.259 0.30567 11.7234 0.802189 11.4328L19.9896 0.218295C20.4861 -0.0722768 21.0959 -0.0722768 21.5924 0.218295V0.216725Z" fill="#ECECEC"/>
<path id="Vector_9" d="M19.4419 16.4055L22.6647 14.5223V6.80564C22.6647 6.29518 22.1309 6.07214 21.6204 6.37057L6.31986 15.3123C6.00488 15.4961 5.79541 15.8307 5.79541 16.1448V23.3353C5.79541 23.8457 6.32917 24.0688 6.83965 23.7703L14.123 19.5139C14.6335 19.2154 15.1672 19.4385 15.1672 19.9489V26.6195C15.1672 27.13 15.701 27.353 16.2115 27.0546L18.9144 25.4745V17.238C18.9144 16.9238 19.1254 16.5893 19.4388 16.4055H19.4419Z" fill="#ED544E"/>
<path id="Vector_10" d="M22.1402 23.5913C22.4552 23.4075 22.6647 23.073 22.6647 22.7588V14.5223L19.4419 16.4055C19.127 16.5893 18.9175 16.9238 18.9175 17.238V25.4745L22.1402 23.5913Z" fill="#ED544E"/>
<path id="Vector_11" d="M34.7393 16.2296L27.4575 20.4845C26.947 20.7829 26.4133 20.5599 26.4133 20.0494V13.3789C26.4133 12.8684 25.8795 12.6454 25.369 12.9438L22.6661 14.5239L19.4434 16.4071C19.1284 16.5909 18.9189 16.9254 18.9189 17.2395V18.1772L22.6677 15.9861V16.8343C22.6677 17.2128 22.4675 17.5631 22.1448 17.7516L19.448 19.3269C19.1207 19.5186 18.9189 19.872 18.9189 20.2536V21.0939L22.6677 18.9029V19.751C22.6677 20.1296 22.4675 20.4798 22.1448 20.6683L19.448 22.2437C19.1207 22.4353 18.9189 22.7887 18.9189 23.1703V24.0138L22.6677 21.8227V22.7557C22.6677 23.0698 22.4566 23.4044 22.1432 23.5881L18.9205 25.4714V33.188C18.9205 33.6985 19.4543 33.9215 19.9647 33.6231L35.2622 24.6829C35.5772 24.4991 35.7866 24.1646 35.7866 23.8504V16.66C35.7866 16.1495 35.2529 15.9265 34.7424 16.2249L34.7393 16.2296Z" fill="#006F87"/>
</g>
</g>
<defs>
<clipPath id="clip0_4635_275">
<rect width="148" height="40" fill="white"/>
</clipPath>
</defs>
</svg>
